<svg xmlns="http://www.w3.org/2000/svg" xmlns:xlink="http://www.w3.org/1999/xlink" width="1080" zoomAndPan="magnify" viewBox="0 0 810 809.999993" height="1080" preserveAspectRatio="xMidYMid meet" version="1.0"><defs><clipPath id="48f2cf91b9"><path d="M 31.769531 40 L 778.019531 40 L 778.019531 767 L 31.769531 767 Z M 31.769531 40 " clip-rule="nonzero"/></clipPath></defs><g clip-path="url(#48f2cf91b9)"><path fill="#000000" d="M 404.894531 40.378906 C 198.824219 40.378906 31.769531 207.210938 31.769531 412.832031 C 31.769531 577.417969 138.730469 717.117188 286.949219 766.449219 C 305.558594 769.8125 318.789062 750.753906 318.789062 736.402344 C 318.789062 727.65625 319.011719 717.117188 318.789062 686.171875 C 214.96875 708.597656 182.453125 635.945312 182.453125 635.945312 C 165.414062 592.890625 144.785156 580.558594 144.785156 580.558594 C 110.925781 557.464844 147.25 558.136719 147.25 558.136719 C 184.695312 560.601562 203.980469 592.890625 203.980469 592.890625 C 232.683594 643.121094 297.488281 638.1875 318.789062 628.769531 C 318.789062 605.898438 321.253906 589.304688 327.535156 578.765625 C 210.257812 558.136719 146.351562 490.417969 146.578125 396.6875 C 146.800781 341.300781 165.859375 298.25 196.804688 266.40625 C 183.351562 249.367188 174.15625 191.066406 201.738281 155.1875 C 271.027344 155.1875 312.285156 205.191406 312.285156 205.191406 C 312.285156 205.191406 344.800781 191.066406 404.671875 191.066406 C 464.765625 191.066406 497.054688 204.519531 497.054688 204.519531 C 497.054688 204.519531 538.539062 155.1875 607.824219 155.1875 C 635.40625 191.066406 626.214844 249.367188 615.449219 265.285156 C 645.046875 296.453125 663.210938 339.507812 663.210938 396.6875 C 663.210938 490.417969 599.53125 558.136719 482.480469 578.542969 C 489.878906 589.753906 491 605.449219 491 628.769531 C 491 678.550781 491 724.070312 491 736.402344 C 491 750.753906 504.003906 770.035156 523.066406 766.449219 C 671.285156 716.894531 778.019531 577.417969 778.019531 412.832031 C 778.019531 207.210938 610.964844 40.378906 404.894531 40.378906 Z M 404.894531 40.378906 " fill-opacity="1" fill-rule="nonzero"/></g></svg>