<svg xmlns="http://www.w3.org/2000/svg" xmlns:xlink="http://www.w3.org/1999/xlink" width="1080" zoomAndPan="magnify" viewBox="0 0 810 809.999993" height="1080" preserveAspectRatio="xMidYMid meet" version="1.0"><defs><clipPath id="e0520e6845"><path d="M 34.800781 34.800781 L 775.050781 34.800781 L 775.050781 775.050781 L 34.800781 775.050781 Z M 34.800781 34.800781 " clip-rule="nonzero"/></clipPath></defs><path fill="#000000" d="M 404.925781 322.890625 C 359.742188 322.890625 322.890625 359.742188 322.890625 404.925781 C 322.890625 450.109375 359.742188 486.960938 404.925781 486.960938 C 450.109375 486.960938 486.960938 450.109375 486.960938 404.925781 C 486.960938 359.742188 450.109375 322.890625 404.925781 322.890625 Z M 404.925781 322.890625 " fill-opacity="1" fill-rule="nonzero"/><path fill="#000000" d="M 515.164062 203.679688 L 294.691406 203.679688 C 244.699219 203.679688 203.679688 244.378906 203.679688 294.691406 L 203.679688 515.164062 C 203.679688 565.152344 244.378906 606.171875 294.691406 606.171875 L 515.164062 606.171875 C 565.152344 606.171875 606.171875 565.472656 606.171875 515.164062 L 606.171875 294.691406 C 605.851562 244.378906 565.152344 203.679688 515.164062 203.679688 Z M 404.925781 528.300781 C 336.667969 528.300781 281.230469 472.863281 281.230469 404.605469 C 281.230469 336.347656 336.667969 280.910156 404.925781 280.910156 C 473.183594 280.910156 528.621094 336.347656 528.621094 404.605469 C 528.300781 472.863281 472.863281 528.300781 404.925781 528.300781 Z M 537.273438 301.738281 C 520.929688 301.738281 507.472656 288.28125 507.472656 271.9375 C 507.472656 255.59375 520.929688 242.136719 537.273438 242.136719 C 553.617188 242.136719 567.074219 255.59375 567.074219 271.9375 C 567.074219 288.601562 553.9375 301.738281 537.273438 301.738281 Z M 537.273438 301.738281 " fill-opacity="1" fill-rule="nonzero"/><g clip-path="url(#e0520e6845)"><path fill="#000000" d="M 404.925781 34.800781 C 200.476562 34.800781 34.800781 200.476562 34.800781 404.925781 C 34.800781 609.375 200.476562 775.050781 404.925781 775.050781 C 609.375 775.050781 775.050781 609.375 775.050781 404.925781 C 774.730469 200.476562 609.054688 34.800781 404.925781 34.800781 Z M 647.511719 515.164062 C 647.511719 588.226562 587.90625 647.832031 514.839844 647.832031 L 294.691406 647.832031 C 221.625 647.832031 162.019531 588.226562 162.019531 515.164062 L 162.019531 294.691406 C 162.019531 221.625 221.625 162.019531 294.691406 162.019531 L 515.164062 162.019531 C 588.226562 162.019531 647.832031 221.625 647.832031 294.691406 L 647.832031 515.164062 Z M 647.511719 515.164062 " fill-opacity="1" fill-rule="nonzero"/></g></svg>