<svg xmlns="http://www.w3.org/2000/svg" xmlns:xlink="http://www.w3.org/1999/xlink" width="1080" zoomAndPan="magnify" viewBox="0 0 810 809.999993" height="1080" preserveAspectRatio="xMidYMid meet" version="1.0"><defs><clipPath id="083adc0014"><path d="M 22.070312 47.53125 L 762.320312 47.53125 L 762.320312 787.78125 L 22.070312 787.78125 Z M 22.070312 47.53125 " clip-rule="nonzero"/></clipPath></defs><path fill="#000000" d="M 392.195312 335.621094 C 347.007812 335.621094 310.15625 372.472656 310.15625 417.65625 C 310.15625 462.84375 347.007812 499.695312 392.195312 499.695312 C 437.378906 499.695312 474.230469 462.84375 474.230469 417.65625 C 474.230469 372.472656 437.378906 335.621094 392.195312 335.621094 Z M 392.195312 335.621094 " fill-opacity="1" fill-rule="nonzero"/><path fill="#000000" d="M 502.429688 216.414062 L 281.957031 216.414062 C 231.964844 216.414062 190.949219 257.109375 190.949219 307.421875 L 190.949219 527.894531 C 190.949219 577.886719 231.644531 618.902344 281.957031 618.902344 L 502.429688 618.902344 C 552.421875 618.902344 593.4375 578.207031 593.4375 527.894531 L 593.4375 307.421875 C 593.117188 257.109375 552.421875 216.414062 502.429688 216.414062 Z M 392.195312 541.03125 C 323.9375 541.03125 268.5 485.59375 268.5 417.335938 C 268.5 349.082031 323.9375 293.640625 392.195312 293.640625 C 460.449219 293.640625 515.890625 349.082031 515.890625 417.335938 C 515.570312 485.59375 460.128906 541.03125 392.195312 541.03125 Z M 524.542969 314.472656 C 508.199219 314.472656 494.738281 301.011719 494.738281 284.667969 C 494.738281 268.328125 508.199219 254.867188 524.542969 254.867188 C 540.882812 254.867188 554.34375 268.324219 554.34375 284.667969 C 554.34375 301.332031 541.207031 314.472656 524.542969 314.472656 Z M 524.542969 314.472656 " fill-opacity="1" fill-rule="nonzero"/><g clip-path="url(#083adc0014)"><path fill="#000000" d="M 392.195312 47.53125 C 187.742188 47.53125 22.070312 213.207031 22.070312 417.65625 C 22.070312 622.109375 187.742188 787.78125 392.195312 787.78125 C 596.644531 787.78125 762.320312 622.109375 762.320312 417.65625 C 762 213.207031 596.324219 47.53125 392.195312 47.53125 Z M 634.777344 527.894531 C 634.777344 600.957031 575.171875 660.5625 502.109375 660.5625 L 281.957031 660.5625 C 208.894531 660.5625 149.289062 600.957031 149.289062 527.894531 L 149.289062 307.421875 C 149.289062 234.359375 208.894531 174.753906 281.957031 174.753906 L 502.429688 174.753906 C 575.492188 174.753906 635.097656 234.359375 635.097656 307.421875 L 635.097656 527.894531 Z M 634.777344 527.894531 " fill-opacity="1" fill-rule="nonzero"/></g></svg>