<svg xmlns="http://www.w3.org/2000/svg" xmlns:xlink="http://www.w3.org/1999/xlink" width="1080" zoomAndPan="magnify" viewBox="0 0 810 809.999993" height="1080" preserveAspectRatio="xMidYMid meet" version="1.0"><defs><clipPath id="c6d25985bb"><path d="M 0 51.546875 L 810 51.546875 L 810 809.796875 L 0 809.796875 Z M 0 51.546875 " clip-rule="nonzero"/></clipPath></defs><path fill="#00d8ff" d="M 477.335938 430.003906 C 477.335938 431.1875 477.304688 432.371094 477.246094 433.554688 C 477.191406 434.734375 477.101562 435.914062 476.988281 437.09375 C 476.871094 438.269531 476.726562 439.445312 476.550781 440.617188 C 476.378906 441.785156 476.175781 442.953125 475.945312 444.113281 C 475.714844 445.273438 475.453125 446.425781 475.167969 447.574219 C 474.878906 448.722656 474.5625 449.863281 474.21875 450.996094 C 473.875 452.128906 473.503906 453.25 473.105469 454.367188 C 472.707031 455.480469 472.28125 456.585938 471.828125 457.675781 C 471.375 458.769531 470.898438 459.851562 470.390625 460.921875 C 469.882812 461.992188 469.351562 463.046875 468.792969 464.09375 C 468.238281 465.136719 467.652344 466.164062 467.042969 467.179688 C 466.4375 468.195312 465.804688 469.195312 465.144531 470.179688 C 464.488281 471.164062 463.804688 472.128906 463.101562 473.082031 C 462.394531 474.03125 461.667969 474.964844 460.917969 475.878906 C 460.164062 476.792969 459.394531 477.691406 458.597656 478.566406 C 457.804688 479.445312 456.988281 480.300781 456.148438 481.136719 C 455.3125 481.972656 454.457031 482.789062 453.578125 483.585938 C 452.703125 484.378906 451.804688 485.152344 450.890625 485.902344 C 449.976562 486.652344 449.042969 487.382812 448.089844 488.085938 C 447.140625 488.792969 446.171875 489.472656 445.1875 490.128906 C 444.203125 490.789062 443.207031 491.421875 442.191406 492.027344 C 441.175781 492.636719 440.144531 493.21875 439.101562 493.777344 C 438.058594 494.335938 437 494.867188 435.929688 495.375 C 434.859375 495.878906 433.777344 496.359375 432.683594 496.8125 C 431.589844 497.265625 430.488281 497.691406 429.371094 498.089844 C 428.257812 498.488281 427.132812 498.859375 426 499.203125 C 424.867188 499.546875 423.726562 499.863281 422.578125 500.148438 C 421.429688 500.4375 420.277344 500.695312 419.117188 500.925781 C 417.953125 501.15625 416.789062 501.359375 415.617188 501.535156 C 414.445312 501.707031 413.273438 501.851562 412.09375 501.96875 C 410.914062 502.085938 409.734375 502.171875 408.554688 502.230469 C 407.371094 502.289062 406.1875 502.316406 405.003906 502.316406 C 403.820312 502.316406 402.636719 502.289062 401.457031 502.230469 C 400.273438 502.171875 399.09375 502.085938 397.914062 501.96875 C 396.738281 501.851562 395.5625 501.707031 394.390625 501.535156 C 393.21875 501.359375 392.054688 501.15625 390.894531 500.925781 C 389.730469 500.695312 388.578125 500.4375 387.429688 500.148438 C 386.28125 499.863281 385.140625 499.546875 384.007812 499.203125 C 382.875 498.859375 381.75 498.488281 380.636719 498.089844 C 379.523438 497.691406 378.417969 497.265625 377.324219 496.8125 C 376.230469 496.359375 375.148438 495.878906 374.078125 495.375 C 373.007812 494.867188 371.953125 494.335938 370.90625 493.777344 C 369.863281 493.21875 368.835938 492.636719 367.820312 492.027344 C 366.804688 491.421875 365.804688 490.789062 364.820312 490.128906 C 363.835938 489.472656 362.867188 488.792969 361.917969 488.085938 C 360.964844 487.382812 360.03125 486.652344 359.117188 485.902344 C 358.203125 485.152344 357.308594 484.378906 356.429688 483.585938 C 355.554688 482.789062 354.695312 481.972656 353.859375 481.136719 C 353.023438 480.300781 352.207031 479.445312 351.410156 478.566406 C 350.617188 477.691406 349.84375 476.792969 349.09375 475.878906 C 348.339844 474.964844 347.613281 474.03125 346.90625 473.082031 C 346.203125 472.128906 345.519531 471.164062 344.863281 470.179688 C 344.207031 469.195312 343.574219 468.195312 342.964844 467.179688 C 342.355469 466.164062 341.773438 465.136719 341.214844 464.09375 C 340.65625 463.046875 340.125 461.992188 339.617188 460.921875 C 339.113281 459.851562 338.632812 458.769531 338.179688 457.675781 C 337.726562 456.585938 337.300781 455.480469 336.902344 454.367188 C 336.503906 453.25 336.132812 452.128906 335.789062 450.996094 C 335.445312 449.863281 335.128906 448.722656 334.839844 447.574219 C 334.554688 446.425781 334.292969 445.273438 334.0625 444.113281 C 333.832031 442.953125 333.628906 441.785156 333.457031 440.617188 C 333.28125 439.445312 333.136719 438.269531 333.023438 437.09375 C 332.90625 435.914062 332.820312 434.734375 332.761719 433.554688 C 332.703125 432.371094 332.671875 431.1875 332.671875 430.003906 C 332.671875 428.820312 332.703125 427.640625 332.761719 426.457031 C 332.820312 425.273438 332.90625 424.09375 333.023438 422.917969 C 333.136719 421.738281 333.28125 420.566406 333.457031 419.394531 C 333.628906 418.222656 333.832031 417.058594 334.0625 415.898438 C 334.292969 414.738281 334.554688 413.582031 334.839844 412.433594 C 335.128906 411.285156 335.445312 410.148438 335.789062 409.015625 C 336.132812 407.882812 336.503906 406.757812 336.902344 405.644531 C 337.300781 404.53125 337.726562 403.425781 338.179688 402.332031 C 338.632812 401.238281 339.113281 400.15625 339.617188 399.085938 C 340.125 398.019531 340.65625 396.960938 341.214844 395.917969 C 341.773438 394.875 342.355469 393.84375 342.964844 392.828125 C 343.574219 391.8125 344.207031 390.816406 344.863281 389.832031 C 345.519531 388.847656 346.203125 387.878906 346.90625 386.929688 C 347.613281 385.976562 348.339844 385.046875 349.09375 384.132812 C 349.84375 383.214844 350.617188 382.320312 351.410156 381.445312 C 352.207031 380.566406 353.023438 379.710938 353.859375 378.871094 C 354.695312 378.035156 355.554688 377.21875 356.429688 376.425781 C 357.308594 375.628906 358.203125 374.859375 359.117188 374.105469 C 360.03125 373.355469 360.964844 372.628906 361.917969 371.921875 C 362.867188 371.21875 363.835938 370.539062 364.820312 369.878906 C 365.804688 369.222656 366.804688 368.589844 367.820312 367.980469 C 368.835938 367.371094 369.863281 366.789062 370.90625 366.230469 C 371.953125 365.675781 373.007812 365.140625 374.078125 364.636719 C 375.148438 364.128906 376.230469 363.652344 377.324219 363.199219 C 378.417969 362.746094 379.523438 362.320312 380.636719 361.921875 C 381.75 361.523438 382.875 361.152344 384.007812 360.808594 C 385.140625 360.464844 386.28125 360.148438 387.429688 359.859375 C 388.578125 359.574219 389.730469 359.3125 390.894531 359.082031 C 392.054688 358.851562 393.21875 358.648438 394.390625 358.476562 C 395.5625 358.300781 396.738281 358.15625 397.914062 358.042969 C 399.09375 357.925781 400.273438 357.839844 401.457031 357.78125 C 402.636719 357.722656 403.820312 357.691406 405.003906 357.691406 C 406.1875 357.691406 407.371094 357.722656 408.554688 357.78125 C 409.734375 357.839844 410.914062 357.925781 412.09375 358.042969 C 413.273438 358.15625 414.445312 358.300781 415.617188 358.476562 C 416.789062 358.648438 417.953125 358.851562 419.117188 359.082031 C 420.277344 359.3125 421.429688 359.574219 422.578125 359.859375 C 423.726562 360.148438 424.867188 360.464844 426 360.808594 C 427.132812 361.152344 428.257812 361.523438 429.371094 361.921875 C 430.488281 362.320312 431.589844 362.746094 432.683594 363.199219 C 433.777344 363.652344 434.859375 364.128906 435.929688 364.636719 C 437 365.140625 438.058594 365.675781 439.101562 366.230469 C 440.144531 366.789062 441.175781 367.371094 442.191406 367.980469 C 443.207031 368.589844 444.203125 369.222656 445.1875 369.878906 C 446.171875 370.539062 447.140625 371.21875 448.089844 371.921875 C 449.042969 372.628906 449.976562 373.355469 450.890625 374.105469 C 451.804688 374.859375 452.703125 375.628906 453.578125 376.425781 C 454.457031 377.21875 455.3125 378.035156 456.148438 378.871094 C 456.988281 379.710938 457.804688 380.566406 458.597656 381.445312 C 459.394531 382.320312 460.164062 383.214844 460.917969 384.132812 C 461.667969 385.046875 462.394531 385.976562 463.101562 386.929688 C 463.804688 387.878906 464.488281 388.847656 465.144531 389.832031 C 465.804688 390.816406 466.4375 391.8125 467.042969 392.828125 C 467.652344 393.84375 468.238281 394.875 468.792969 395.917969 C 469.351562 396.960938 469.882812 398.019531 470.390625 399.085938 C 470.898438 400.15625 471.375 401.238281 471.828125 402.332031 C 472.28125 403.425781 472.707031 404.53125 473.105469 405.644531 C 473.503906 406.757812 473.875 407.882812 474.21875 409.015625 C 474.5625 410.148438 474.878906 411.285156 475.167969 412.433594 C 475.453125 413.582031 475.714844 414.738281 475.945312 415.898438 C 476.175781 417.058594 476.378906 418.222656 476.550781 419.394531 C 476.726562 420.566406 476.871094 421.738281 476.988281 422.917969 C 477.101562 424.09375 477.191406 425.273438 477.246094 426.457031 C 477.304688 427.640625 477.335938 428.820312 477.335938 430.003906 Z M 477.335938 430.003906 " fill-opacity="1" fill-rule="nonzero"/><path stroke-linecap="butt" transform="matrix(1.4418, 0, 0, 1.441421, 16.395924, 87.480044)" fill="none" stroke-linejoin="miter" d="M 269.529729 135.630305 C 336.88531 135.630305 399.458999 145.29416 446.64123 161.537892 C 503.484778 181.106792 538.434578 210.770437 538.434578 237.629233 C 538.434578 265.620809 501.393208 297.132673 440.350266 317.357393 C 394.200273 332.647205 333.471608 340.630861 269.529729 340.630861 C 203.975824 340.630861 141.900643 333.137714 95.230468 317.189373 C 36.18427 297.008013 0.62217 265.086939 0.62217 237.629233 C 0.62217 210.987237 33.989747 181.553942 90.036765 162.014852 C 137.389681 145.50283 201.504954 135.630305 269.52702 135.630305 Z M 269.529729 135.630305 " stroke="#00d8ff" stroke-width="24" stroke-opacity="1" stroke-miterlimit="4"/><g clip-path="url(#c6d25985bb)"><path stroke-linecap="butt" transform="matrix(1.4418, 0, 0, 1.441421, 16.395924, 87.480044)" fill="none" stroke-linejoin="miter" d="M 180.74098 186.919739 C 214.390323 128.570759 254.019062 79.200004 291.659184 46.438831 C 337.009937 6.975831 380.160749 -8.479291 403.430814 4.937912 C 427.678931 18.918795 436.473276 66.75027 423.495792 129.736058 C 413.696302 177.356154 390.26368 233.946345 358.321187 289.336007 C 325.571328 346.124028 288.072088 396.156022 250.941312 428.608256 C 203.962277 469.675575 158.541083 484.537207 134.761672 470.819194 C 111.681257 457.521231 102.854401 413.901093 113.927256 355.590053 C 123.282424 306.319568 146.758395 245.848659 180.727433 186.930579 Z M 180.74098 186.919739 " stroke="#00d8ff" stroke-width="24" stroke-opacity="1" stroke-miterlimit="4"/><path stroke-linecap="butt" transform="matrix(1.4418, 0, 0, 1.441421, 16.395924, 87.480044)" fill="none" stroke-linejoin="miter" d="M 180.819549 289.479637 C 147.0808 231.201116 124.100628 172.199027 114.509753 123.229352 C 102.965482 64.229972 111.128563 19.119335 134.374244 5.658772 C 158.597978 -8.362761 204.428275 7.90536 252.512698 50.598679 C 288.871328 82.880182 326.202592 131.437937 358.23449 186.770689 C 391.079175 243.5018 415.693046 300.980871 425.270375 349.348926 C 437.386306 410.562375 427.578688 457.328821 403.818242 471.090194 C 380.759501 484.436937 338.567777 470.307004 293.577359 431.589254 C 255.563355 398.879571 214.89425 348.338097 180.81684 289.468797 Z M 180.819549 289.479637 " stroke="#00d8ff" stroke-width="24" stroke-opacity="1" stroke-miterlimit="4"/></g></svg>