<svg xmlns="http://www.w3.org/2000/svg" xmlns:xlink="http://www.w3.org/1999/xlink" width="1080" zoomAndPan="magnify" viewBox="0 0 810 809.999993" height="1080" preserveAspectRatio="xMidYMid meet" version="1.0"><defs><clipPath id="8d18d4933b"><path d="M 28.496094 28.496094 L 781.496094 28.496094 L 781.496094 781.496094 L 28.496094 781.496094 Z M 28.496094 28.496094 " clip-rule="nonzero"/></clipPath></defs><g clip-path="url(#8d18d4933b)"><path fill="#000000" d="M 404.996094 28.496094 C 197.023438 28.496094 28.496094 197.023438 28.496094 404.996094 C 28.496094 612.96875 197.023438 781.496094 404.996094 781.496094 C 612.96875 781.496094 781.496094 612.96875 781.496094 404.996094 C 781.167969 197.023438 612.640625 28.496094 404.996094 28.496094 Z M 294.492188 605.46875 L 206.152344 605.46875 L 206.152344 320.566406 L 294.492188 320.566406 Z M 250.484375 282.753906 C 222.125 282.753906 198.980469 259.609375 198.980469 231.25 C 198.980469 202.890625 222.125 179.746094 250.484375 179.746094 C 278.84375 179.746094 301.988281 202.890625 301.988281 231.25 C 301.988281 259.609375 278.84375 282.753906 250.484375 282.753906 Z M 626.332031 605.46875 L 537.992188 605.46875 L 537.992188 463.019531 C 537.992188 442.808594 537.992188 392.609375 493.007812 392.609375 C 441.832031 392.609375 438.570312 444.4375 438.570312 444.4375 L 438.570312 605.46875 L 350.558594 605.46875 L 350.558594 320.566406 L 438.898438 320.566406 L 438.898438 359.683594 C 459.757812 317.308594 502.789062 314.046875 530.820312 314.046875 C 562.765625 314.046875 591.453125 326.4375 607.75 353.816406 C 621.769531 376.960938 626.332031 410.535156 626.332031 463.019531 Z M 626.332031 605.46875 " fill-opacity="1" fill-rule="nonzero"/></g></svg>